HIERARCHY
ROOT Hip
{
  OFFSET 0.0 0.0 0.0
  CHANNELS 6 Xposition Yposition Zposition Xrotation Yrotation Zrotation
  JOINT LowerSpine
  {
    OFFSET 0.0 0.061367 -0.03653
    CHANNELS 3 Xrotation Yrotation Zrotation
    JOINT MiddleSpine
    {
      OFFSET 0.0 0.056002 0.002633
      CHANNELS 3 Xrotation Yrotation Zrotation
      JOINT Chest
      {
        OFFSET 0.0 0.069296 -0.013882
        CHANNELS 3 Xrotation Yrotation Zrotation
        JOINT Neck
        {
          OFFSET 0.0 0.156156 -0.002923
          CHANNELS 3 Xrotation Yrotation Zrotation
          JOINT Head
          {
            OFFSET 0.0 0.088183 0.023986
            CHANNELS 3 Xrotation Yrotation Zrotation
            End Site
            {
              OFFSET 1e-06 0.123215 0.003678
            }
          }
        }
        JOINT LClavicle
        {
          OFFSET 0.014189 0.150698 0.046467
          CHANNELS 3 Xrotation Yrotation Zrotation
          JOINT LShoulder
          {
            OFFSET 0.082893 0.021616 -0.034976
            CHANNELS 3 Xrotation Yrotation Zrotation
            JOINT LForearm
            {
              OFFSET 0.195645 -0.000695 -0.001695
              CHANNELS 3 Xrotation Yrotation Zrotation
              JOINT LHand
              {
                OFFSET 0.163209 0.000474 -0.000977
                CHANNELS 3 Xrotation Yrotation Zrotation
                End Site
                {
                  OFFSET 0.0 0.006864 0.0
                }
              }
            }
          }
        }
        JOINT RClavicle
        {
          OFFSET -0.014189 0.150698 0.046467
          CHANNELS 3 Xrotation Yrotation Zrotation
          JOINT RShoulder
          {
            OFFSET -0.082908 0.021619 -0.034982
            CHANNELS 3 Xrotation Yrotation Zrotation
            JOINT RForearm
            {
              OFFSET -0.195645 -0.000695 -0.001695
              CHANNELS 3 Xrotation Yrotation Zrotation
              JOINT RHand
              {
                OFFSET -0.163209 0.000474 -0.000977
                CHANNELS 3 Xrotation Yrotation Zrotation
                End Site
                {
                  OFFSET 0.0 0.006864 0.0
                }
              }
            }
          }
        }
      }
    }
  }
  JOINT RThigh
  {
    OFFSET -0.072558 0.02774 -0.005953
    CHANNELS 3 Xrotation Yrotation Zrotation
    JOINT RShin
    {
      OFFSET -0.005253 -0.285537 0.0
      CHANNELS 3 Xrotation Yrotation Zrotation
      JOINT RFoot
      {
        OFFSET 0.0 -0.28038 0.0
        CHANNELS 3 Xrotation Yrotation Zrotation
        JOINT RToe
        {
          OFFSET 0.0 -0.030816 0.064441
          CHANNELS 3 Xrotation Yrotation Zrotation
          End Site
          {
            OFFSET 0.0 0.0 0.043231
          }
        }
      }
    }
  }
  JOINT LThigh
  {
    OFFSET 0.072557 0.027741 -0.005953
    CHANNELS 3 Xrotation Yrotation Zrotation
    JOINT LShin
    {
      OFFSET 0.005253 -0.285539 0.0
      CHANNELS 3 Xrotation Yrotation Zrotation
      JOINT LFoot
      {
        OFFSET 0.0 -0.28038 0.0
        CHANNELS 3 Xrotation Yrotation Zrotation
        JOINT LToe
        {
          OFFSET 0.0 -0.030816 0.064441
          CHANNELS 3 Xrotation Yrotation Zrotation
          End Site
          {
            OFFSET 0.0 0.0 0.043231
          }
        }
      }
    }
  }
}
MOTION
Frames: 12
Frame Time: 0.03333333333333333
0.014739 0.584026 0.008621 2.253335 -0.362847 -2.950624 -1.1429 0.161344 0.45693 0.031408 1.172935 0.59258 -2.06216 -0.988955 3.143997 -1.186231 -0.064231 -0.300884 -0.015092 0.041547 0.03006 -1.272375 -0.331312 -18.018528 15.803067 -12.853077 -60.430962 1.910405 -21.433283 -2.164625 -0.009796 -0.003866 0.005443 0.609281 -1.467953 3.548439 -35.226063 8.549087 27.281614 145.523514 75.470337 173.431503 0.064623 -0.088061 0.00202 -1.301782 -2.702402 -5.109723 -0.621116 -2.336879 0.551032 -1.827685 0.994977 0.593888 0.174437 0.09188 -0.016394 2.913264 -0.967405 -0.806919 -0.324298 0.669098 2.641409 -5.659609 4.452549 2.409573 -0.027263 0.110804 0.064326 
0.014895 0.583706 0.008916 2.259441 -0.361005 -2.944399 -1.139652 0.159085 0.45387 0.035989 1.173704 0.587004 -2.051441 -0.969056 3.1258 -1.18434 -0.062384 -0.30075 -0.015243 0.041895 0.03029 -1.269047 -0.325983 -18.018354 15.770724 -12.911866 -60.408791 1.895113 -21.286663 -2.166064 -0.01021 -0.004721 0.006065 0.609105 -1.465324 3.570659 -35.179779 8.627937 27.347006 145.561127 75.437973 173.441681 0.065236 -0.087475 0.00232 -1.278638 -2.680555 -5.120355 -0.618629 -2.317119 0.547275 -1.834179 0.990684 0.5928 0.174469 0.092415 -0.01611 2.941797 -0.975023 -0.796115 -0.329287 0.661786 2.64378 -5.669206 4.44685 2.406029 -0.027614 0.111457 0.064236 
0.014997 0.583392 0.009323 2.263309 -0.372608 -2.936612 -1.134269 0.15631 0.449925 0.041109 1.171921 0.581124 -2.036026 -0.94756 3.105088 -1.179057 -0.059772 -0.299058 -0.015356 0.042024 0.030554 -1.265243 -0.319907 -18.020004 15.723245 -12.9867 -60.396816 1.874746 -21.121204 -2.167133 -0.010725 -0.005757 0.006729 0.609459 -1.463385 3.597546 -35.167404 8.719552 27.416914 145.58696 75.447334 173.441956 0.065629 -0.086692 0.002627 -1.253173 -2.646124 -5.11813 -0.609162 -2.28727 0.540419 -1.843705 0.985516 0.5906 0.174201 0.092736 -0.015716 2.983125 -0.9795 -0.785386 -0.332528 0.657832 2.647329 -5.683549 4.443467 2.403479 -0.028236 0.112175 0.064162 
0.015034 0.583087 0.009807 2.266317 -0.398457 -2.927262 -1.126259 0.152993 0.445042 0.046073 1.168045 0.574686 -2.015277 -0.924784 3.082609 -1.169565 -0.056216 -0.296244 -0.01541 0.041783 0.03084 -1.261186 -0.313184 -18.021465 15.659445 -13.075319 -60.395981 1.849304 -20.94573 -2.166093 -0.011297 -0.006926 0.007392 0.610011 -1.462472 3.629489 -35.183922 8.816585 27.495365 145.591583 75.496681 173.438019 0.065631 -0.085746 0.002907 -1.230245 -2.600417 -5.10176 -0.591513 -2.248357 0.53063 -1.855694 0.979668 0.587433 0.173602 0.092754 -0.01516 3.033711 -0.980272 -0.773791 -0.332958 0.658726 2.651717 -5.702375 4.442565 2.40206 -0.029046 0.112882 0.064086 
0.014982 0.582791 0.01031 2.270349 -0.440703 -2.916282 -1.113413 0.149217 0.439936 0.049746 1.163677 0.567238 -1.988913 -0.899561 3.055207 -1.155962 -0.051625 -0.292492 -0.015316 0.04063 0.031019 -1.25839 -0.306473 -18.017353 15.577085 -13.185213 -60.407982 1.817338 -20.762928 -2.157848 -0.011753 -0.00797 0.007826 0.609127 -1.462361 3.663662 -35.215 8.920232 27.588928 145.570755 75.582466 173.436539 0.064619 -0.084559 0.003045 -1.21461 -2.544122 -5.0685 -0.564107 -2.200956 0.515789 -1.868683 0.973208 0.58309 0.172378 0.092391 -0.014263 3.087151 -0.976901 -0.758501 -0.32624 0.664804 2.655893 -5.726569 4.443549 2.402585 -0.029856 0.113301 0.063851 
0.014816 0.582484 0.010852 2.270987 -0.497471 -2.904785 -1.095288 0.144074 0.432999 0.052763 1.155736 0.559074 -1.957909 -0.869604 3.026578 -1.14055 -0.046558 -0.286651 -0.015062 0.039886 0.031072 -1.259387 -0.30587 -18.005693 15.49077 -13.305586 -60.426357 1.776146 -20.576832 -2.145496 -0.012354 -0.009263 0.008382 0.608436 -1.461141 3.695737 -35.278301 9.016135 27.69392 145.526749 75.70108 173.436523 0.063065 -0.082466 0.003138 -1.199009 -2.476221 -5.021092 -0.5327 -2.146856 0.501871 -1.887452 0.970614 0.578553 0.170433 0.091018 -0.013264 3.151843 -0.973063 -0.737338 -0.319171 0.676856 2.665768 -5.756576 4.446709 2.40306 -0.030939 0.113916 0.06373 
0.014534 0.582188 0.011416 2.264874 -0.557907 -2.892856 -1.074089 0.139116 0.42537 0.057174 1.146105 0.549718 -1.919177 -0.842945 2.997588 -1.120181 -0.041472 -0.280415 -0.014974 0.03929 0.031265 -1.260352 -0.304215 -17.991016 15.396609 -13.436574 -60.444176 1.736093 -20.388248 -2.131713 -0.013265 -0.011047 0.009237 0.609373 -1.457771 3.731195 -35.344872 9.104592 27.811609 145.461823 75.82666 173.43985 0.061123 -0.079353 0.003249 -1.180633 -2.394972 -4.959239 -0.496511 -2.082806 0.482745 -1.910623 0.965116 0.573435 0.168611 0.088564 -0.012439 3.232465 -0.969306 -0.70989 -0.312861 0.69463 2.678687 -5.790153 4.452666 2.403798 -0.032499 0.11486 0.063801 
0.014132 0.581902 0.011987 2.253478 -0.620239 -2.880781 -1.050141 0.134592 0.416478 0.062396 1.134428 0.538353 -1.87483 -0.82473 2.969489 -1.095113 -0.036559 -0.273824 -0.015155 0.039317 0.031683 -1.261657 -0.301032 -17.971853 15.297934 -13.574478 -60.459164 1.694949 -20.195679 -2.118196 -0.014618 -0.013526 0.010552 0.612128 -1.450856 3.768796 -35.403591 9.186615 27.939798 145.383484 75.947258 173.442627 0.059134 -0.075094 0.003441 -1.160081 -2.303773 -4.88622 -0.456493 -2.012439 0.461244 -1.938446 0.956171 0.568007 0.167066 0.084805 -0.011934 3.325275 -0.96699 -0.675241 -0.308092 0.718135 2.694749 -5.826921 4.462554 2.404634 -0.034676 0.11637 0.064143 
0.013662 0.581626 0.012541 2.238714 -0.688207 -2.868827 -1.024879 0.130226 0.407501 0.067465 1.122045 0.526955 -1.827918 -0.808829 2.940206 -1.0683 -0.03149 -0.266992 -0.015303 0.039148 0.032096 -1.263868 -0.298617 -17.950771 15.200159 -13.712339 -60.477085 1.652182 -20.011747 -2.103176 -0.015992 -0.015996 0.011926 0.614729 -1.443168 3.807191 -35.461746 9.259749 28.070391 145.295486 76.073082 173.445831 0.056841 -0.070659 0.003588 -1.141923 -2.209882 -4.807176 -0.414521 -1.93986 0.438631 -1.966887 0.947444 0.562513 0.165441 0.080793 -0.011444 3.420677 -0.96232 -0.635661 -0.301404 0.745231 2.710334 -5.864635 4.473479 2.405962 -0.036929 0.11789 0.064527 
0.013136 0.581374 0.013047 2.22146 -0.758703 -2.856917 -0.999315 0.12654 0.399094 0.072794 1.109838 0.515266 -1.780061 -0.795899 2.907697 -1.039898 -0.02655 -0.260057 -0.015428 0.038729 0.032518 -1.266432 -0.296889 -17.929079 15.105639 -13.850562 -60.498093 1.607013 -19.8372 -2.085286 -0.017429 -0.018502 0.013453 0.617107 -1.434368 3.846976 -35.512383 9.326237 28.203962 145.205643 76.200783 173.449097 0.054189 -0.065978 0.003695 -1.126173 -2.115335 -4.723073 -0.370452 -1.867342 0.413761 -1.995046 0.938664 0.55711 0.163621 0.076503 -0.01099 3.514366 -0.954812 -0.591494 -0.292729 0.775535 2.724346 -5.901626 4.48475 2.407637 -0.039174 0.119393 0.064917 
0.012572 0.581153 0.013488 2.204737 -0.827953 -2.845712 -0.974126 0.12323 0.391304 0.07724 1.097989 0.50373 -1.732369 -0.785162 2.872023 -1.01061 -0.021565 -0.253157 -0.015523 0.037893 0.032921 -1.269519 -0.295767 -17.907299 15.017701 -13.982491 -60.520668 1.558955 -19.672461 -2.064467 -0.018819 -0.020865 0.015013 0.619152 -1.424683 3.885871 -35.557026 9.385786 28.335159 145.111786 76.325798 173.4534 0.051132 -0.061258 0.003736 -1.114145 -2.023714 -4.637717 -0.325851 -1.79687 0.388221 -2.022413 0.929976 0.551645 0.161516 0.072187 -0.010543 3.599221 -0.945905 -0.543622 -0.281755 0.808321 2.736865 -5.936609 4.495777 2.409504 -0.04127 0.120752 0.065267 
0.011994 0.580968 0.013851 2.186558 -0.8948 -2.834327 -0.949883 0.120199 0.383924 0.08106 1.086538 0.492615 -1.686813 -0.778241 2.83631 -0.981581 -0.016577 -0.246516 -0.015593 0.036971 0.033341 -1.273447 -0.294865 -17.886541 14.938884 -14.104317 -60.543991 1.510574 -19.521206 -2.04409 -0.020188 -0.023103 0.01663 0.621218 -1.415095 3.921644 -35.59724 9.440547 28.45628 145.014725 76.441719 173.45903 0.047969 -0.056679 0.003732 -1.105469 -1.937443 -4.555018 -0.281855 -1.729914 0.363554 -2.048615 0.921544 0.546337 0.159415 0.067794 -0.010197 3.67591 -0.936806 -0.494531 -0.268945 0.842189 2.748034 -5.96893 4.507169 2.411543 -0.043257 0.122083 0.06563 
